<svg xmlns="http://www.w3.org/2000/svg" viewBox="0 0 100 100" width="100" height="100" preserveAspectRatio="xMidYMid meet" style="width: 100%; height: 100%; transform: translate3d(0px, 0px, 0px);"><defs><clipPath id="__lottie_element_22"><rect width="100" height="100" x="0" y="0"></rect></clipPath></defs><g clip-path="url(#__lottie_element_22)"><g transform="matrix(1,0,0,1,42.48100280761719,42.82899856567383)" opacity="1" style="display: block;"><g opacity="1" transform="matrix(1,0,0,1,4.78000020980835,3.4019999504089355)"><path fill="rgb(244,176,101)" fill-opacity="1" d=" M4.53000020980835,-3.1519999504089355 C4.53000020980835,-3.1519999504089355 4.53000020980835,3.1519999504089355 4.53000020980835,3.1519999504089355 C4.53000020980835,3.1519999504089355 -4.53000020980835,3.1519999504089355 -4.53000020980835,3.1519999504089355 C-3.5739998817443848,0.20399999618530273 -1.1449999809265137,-2.055999994277954 1.9010000228881836,-2.7720000743865967 C2.7669999599456787,-2.9760000705718994 3.6470000743865967,-3.1029999256134033 4.53000020980835,-3.1519999504089355z"></path></g></g><g transform="matrix(1,0,0,1,53.21500015258789,42.83000183105469)" opacity="1" style="display: block;"><g opacity="1" transform="matrix(1,0,0,1,5.14300012588501,6.758999824523926)"><path fill="rgb(244,176,101)" fill-opacity="1" d=" M-4.89300012588501,-6.508999824523926 C-4.89300012588501,-6.508999824523926 -4.89300012588501,6.508999824523926 -4.89300012588501,6.508999824523926 C-4.89300012588501,6.508999824523926 4.559999942779541,6.508999824523926 4.559999942779541,6.508999824523926 C4.89300012588501,4.521999835968018 4.828999996185303,2.4860000610351562 4.368000030517578,0.5180000066757202 C3.5959999561309814,-2.7809998989105225 1.0260000228881836,-5.35699987411499 -2.265000104904175,-6.130000114440918 C-3.13100004196167,-6.334000110626221 -4.011000156402588,-6.460000038146973 -4.89300012588501,-6.508999824523926z"></path></g></g><g transform="matrix(1,0,0,1,53.215999603271484,57.527000427246094)" opacity="1" style="display: block;"><g opacity="1" transform="matrix(1,0,0,1,4.7789998054504395,3.4019999504089355)"><path fill="rgb(244,176,101)" fill-opacity="1" d=" M4.53000020980835,-3.1519999504089355 C4.53000020980835,-3.1519999504089355 -4.53000020980835,-3.1519999504089355 -4.53000020980835,-3.1519999504089355 C-4.53000020980835,-3.1519999504089355 -4.53000020980835,3.1519999504089355 -4.53000020980835,3.1519999504089355 C-3.6480000019073486,3.1029999256134033 -2.7679998874664307,2.9769999980926514 -1.9019999504089355,2.7730000019073486 C1.1449999809265137,2.056999921798706 3.572999954223633,-0.20399999618530273 4.53000020980835,-3.1519999504089355z"></path></g></g><g transform="matrix(1,0,0,1,41.753997802734375,50.8120002746582)" opacity="1" style="display: block;"><g opacity="1" transform="matrix(1,0,0,1,5.14300012588501,6.758999824523926)"><path fill="rgb(244,176,101)" fill-opacity="1" d=" M4.89300012588501,6.508999824523926 C4.89300012588501,6.508999824523926 4.89300012588501,-6.508999824523926 4.89300012588501,-6.508999824523926 C4.89300012588501,-6.508999824523926 -4.559999942779541,-6.508999824523926 -4.559999942779541,-6.508999824523926 C-4.89300012588501,-4.5229997634887695 -4.828999996185303,-2.4860000610351562 -4.368000030517578,-0.5180000066757202 C-3.5959999561309814,2.7809998989105225 -1.0260000228881836,5.35699987411499 2.265000104904175,6.130000114440918 C3.13100004196167,6.334000110626221 4.010000228881836,6.460000038146973 4.89300012588501,6.508999824523926z"></path></g></g></g></svg>