<svg xmlns="http://www.w3.org/2000/svg" width="32" height="34" viewBox="0 0 32 34" fill="none" class="injected-svg" data-src="/static/media/premium-badge.71e4c8af843fcac09c3ea5d2560ee713.svg" xmlns:xlink="http://www.w3.org/1999/xlink">
    <g filter="url(#filter0_d_735_5404-1)">
    <path d="M14.2516 3.14806C15.0135 1.77616 16.9865 1.77616 17.7484 3.14806L18.5506 4.59234C19.0021 5.40535 19.9545 5.79984 20.8487 5.54424L22.4372 5.09019C23.946 4.6589 25.3411 6.05399 24.9098 7.56285L24.4558 9.15131C24.2002 10.0455 24.5946 10.9979 25.4077 11.4494L26.8519 12.2516C28.2238 13.0135 28.2238 14.9865 26.8519 15.7484L25.4077 16.5506C24.5946 17.0021 24.2002 17.9545 24.4558 18.8487L24.9098 20.4372C25.3411 21.946 23.946 23.3411 22.4372 22.9098L20.8487 22.4558C19.9545 22.2002 19.0021 22.5946 18.5506 23.4077L17.7484 24.8519C16.9865 26.2238 15.0135 26.2238 14.2516 24.8519L13.4494 23.4077C12.9979 22.5946 12.0455 22.2002 11.1513 22.4558L9.56285 22.9098C8.05399 23.3411 6.65889 21.946 7.09019 20.4372L7.54424 18.8487C7.79984 17.9545 7.40535 17.0021 6.59234 16.5506L5.14806 15.7484C3.77616 14.9865 3.77616 13.0135 5.14806 12.2516L6.59234 11.4494C7.40535 10.9979 7.79984 10.0455 7.54424 9.15131L7.09019 7.56285C6.6589 6.05399 8.05399 4.6589 9.56285 5.09019L11.1513 5.54424C12.0455 5.79984 12.9979 5.40535 13.4494 4.59234L14.2516 3.14806Z" fill="#F3A952"></path>
    <path d="M21.8509 10.5133C21.7321 10.4262 21.5735 10.4244 21.4533 10.5079L19.4353 11.8847C19.3577 11.9383 19.3034 12.0219 19.2856 12.1168C19.267 12.2113 19.2863 12.3098 19.3385 12.3902C19.4545 12.5693 19.5156 12.7783 19.5156 12.9948C19.5156 13.597 19.0425 14.0868 18.4609 14.0868C17.8794 14.0868 17.4062 13.597 17.4062 12.9948C17.4062 12.6408 17.5752 12.307 17.8574 12.1015C18.016 11.9863 18.0544 11.7595 17.9432 11.5949L16.2877 9.14609C16.1572 8.9513 15.8428 8.9513 15.7123 9.14609L14.0568 11.595C13.9456 11.7595 13.984 11.9863 14.1426 12.1015C14.4248 12.307 14.5937 12.6408 14.5937 12.9948C14.5937 13.597 14.1206 14.0869 13.5391 14.0869C12.9575 14.0869 12.4844 13.597 12.4844 12.9948C12.4844 12.7784 12.5455 12.5693 12.6615 12.3902C12.7137 12.3098 12.7329 12.2114 12.7144 12.1168C12.6965 12.0219 12.6423 11.9383 12.5647 11.8847L10.5467 10.5079C10.4259 10.4244 10.2679 10.4262 10.1491 10.5133C10.0303 10.6 9.97541 10.7532 10.0104 10.899L11.44 16.7231C11.4839 16.9065 11.6556 17.0292 11.8389 16.994C14.6006 16.5176 17.3994 16.5176 20.1611 16.994C20.1803 16.9975 20.2002 16.9989 20.2187 16.9989C20.3774 16.9989 20.5202 16.8873 20.56 16.7231L21.9896 10.899C22.0246 10.7532 21.9697 10.6 21.8509 10.5133Z" fill="#000012"></path>
    </g>
    <defs>
    <filter id="filter0_d_735_5404-1" x="0.119141" y="2.11914" width="31.7617" height="31.7617" filterUnits="userSpaceOnUse" color-interpolation-filters="sRGB">
    <feFlood flood-opacity="0" result="BackgroundImageFix"></feFlood>
    <feColorMatrix in="SourceAlpha" type="matrix" values="0 0 0 0 0 0 0 0 0 0 0 0 0 0 0 0 0 0 127 0" result="hardAlpha"></feColorMatrix>
    <feOffset dy="4"></feOffset>
    <feGaussianBlur stdDeviation="2"></feGaussianBlur>
    <feComposite in2="hardAlpha" operator="out"></feComposite>
    <feColorMatrix type="matrix" values="0 0 0 0 0 0 0 0 0 0 0 0 0 0 0 0 0 0 0.25 0"></feColorMatrix>
    <feBlend mode="normal" in2="BackgroundImageFix" result="effect1_dropShadow_735_5404"></feBlend>
    <feBlend mode="normal" in="SourceGraphic" in2="effect1_dropShadow_735_5404" result="shape"></feBlend>
    </filter>
    </defs>
    </svg>